<svg width="45" height="41" viewBox="0 0 45 41" fill="none" xmlns="http://www.w3.org/2000/svg">
<path d="M32.6952 0.138286C28.736 0.0124268 24.9943 1.79309 22.4998 4.94546C20.0949 1.91122 16.5051 0.131958 12.7021 0.131958C12.6838 0.131958 12.6652 0.131958 12.6469 0.132046C9.36338 0.146899 6.24695 1.47915 3.87162 3.88348C1.38405 6.40128 -0.0268587 9.9003 0.000387444 13.4832C0.0270183 16.9764 1.34599 20.2619 3.71552 22.7358L12.4124 31.773C12.5565 31.9229 12.7489 31.9982 12.9416 31.9982C13.1247 31.9982 13.3083 31.93 13.4506 31.7931C13.7428 31.5119 13.7518 31.047 13.4706 30.7548L4.77496 21.7188C2.66673 19.5177 1.49268 16.589 1.46895 13.4721C1.44461 10.2766 2.70109 7.15793 4.9162 4.91567C7.0152 2.791 9.76301 1.61371 12.6534 1.6007C12.6696 1.60061 12.6856 1.60061 12.7019 1.60061C16.3511 1.60061 19.7835 3.4667 21.8908 6.5993C22.0272 6.80207 22.2556 6.92371 22.5 6.92371C22.7445 6.92371 22.9729 6.80207 23.1093 6.5993C25.2939 3.35183 28.8586 1.48574 32.6483 1.60615C33.0524 1.621 33.3927 1.30108 33.4057 0.89564C33.4186 0.490376 33.1005 0.151206 32.6952 0.138286Z" fill="#476200"/>
<path d="M44.9958 13.033C44.8613 7.49272 41.372 2.58174 36.3132 0.812591C35.9303 0.678382 35.5116 0.880443 35.3777 1.26329C35.2438 1.64615 35.4456 2.06486 35.8284 2.19871C40.3138 3.76739 43.4079 8.13573 43.5277 13.0686C43.6055 16.2748 42.4732 19.3035 40.3393 21.5966C40.3338 21.6024 40.3286 21.6084 40.3233 21.6143L40.3028 21.6356C40.2387 21.7039 40.1737 21.7714 40.1019 21.8444L23.7194 38.8707C23.3913 39.2117 22.9583 39.3995 22.5002 39.3995C22.042 39.3995 21.609 39.2117 21.281 38.8708L16.0019 33.3851C15.7208 33.093 15.2559 33.084 14.9637 33.3652C14.6715 33.6463 14.6626 34.1112 14.9437 34.4034L20.2228 39.8891C20.8303 40.5204 21.6392 40.868 22.5003 40.868C23.3615 40.868 24.1702 40.5203 24.7776 39.889L41.154 22.869C41.2279 22.794 41.3009 22.7181 41.3672 22.6476L41.407 22.6062C41.4182 22.5944 41.4291 22.5824 41.4395 22.5701C43.82 19.9977 45.0827 16.6123 44.9958 13.033Z" fill="#476200"/>
</svg>
