<svg width="7" height="9" viewBox="0 0 7 9" fill="none" xmlns="http://www.w3.org/2000/svg">
<path d="M6.00015 4.14882L1.99504 0.143779C1.90241 0.0510728 1.77875 0 1.6469 0C1.51504 0 1.39139 0.0510728 1.29875 0.143779L1.0038 0.438655C0.811879 0.6308 0.811879 0.94309 1.0038 1.13494L4.367 4.49813L1.00007 7.86506C0.907439 7.95776 0.856293 8.08135 0.856293 8.21313C0.856293 8.34505 0.907439 8.46864 1.00007 8.56142L1.29502 8.85622C1.38773 8.94893 1.51131 9 1.64316 9C1.77502 9 1.89867 8.94893 1.99131 8.85622L6.00015 4.84752C6.09301 4.75452 6.14401 4.63035 6.14371 4.49835C6.14401 4.36584 6.09301 4.24175 6.00015 4.14882Z" fill="#476200"/>
</svg>
