<svg width="9" height="7" viewBox="0 0 9 7" fill="none" xmlns="http://www.w3.org/2000/svg">
<path d="M4.85116 6.00015L8.85621 1.99504C8.94891 1.90241 8.99998 1.77875 8.99998 1.6469C8.99998 1.51504 8.94891 1.39139 8.85621 1.29875L8.56133 1.0038C8.36919 0.811878 8.05689 0.811878 7.86504 1.0038L4.50185 4.367L1.13493 1.00007C1.04222 0.907438 0.918636 0.856292 0.786857 0.856292C0.654931 0.856292 0.531346 0.907438 0.438567 1.00007L0.143764 1.29502C0.0510578 1.38773 -1.43337e-05 1.51131 -1.43395e-05 1.64316C-1.43453e-05 1.77502 0.0510578 1.89867 0.143764 1.99131L4.15246 6.00015C4.24546 6.09301 4.36963 6.14401 4.50163 6.14371C4.63414 6.14401 4.75824 6.09301 4.85116 6.00015Z" fill="white"/>
</svg>
