<svg width="30" height="30" viewBox="0 0 30 30" fill="none" xmlns="http://www.w3.org/2000/svg">
<path d="M29.994 11.4689C29.9909 11.4344 29.9841 11.4004 29.9735 11.3674C29.9667 11.3379 29.9571 11.3091 29.9451 11.2813C29.9311 11.2542 29.9143 11.2285 29.8951 11.2048C29.8758 11.1766 29.8535 11.1507 29.8286 11.1273C29.8205 11.1203 29.8171 11.1108 29.8086 11.1038L24.9998 7.36913V3.49847C24.9998 2.67003 24.3282 1.99839 23.4998 1.99839H18.081L15.9113 0.313796C15.3753 -0.104233 14.6237 -0.104233 14.0877 0.313796L11.9176 1.99839H6.49879C5.67035 1.99839 4.99871 2.66997 4.99871 3.49847V7.36919L0.191493 11.1039C0.182996 11.1109 0.179481 11.1204 0.171511 11.1274C0.146608 11.1507 0.124282 11.1767 0.105004 11.2049C0.0857843 11.2286 0.0690256 11.2542 0.055021 11.2814C0.0428915 11.3091 0.0333988 11.3379 0.026543 11.3674C0.0161127 11.3999 0.00925691 11.4335 0.00603409 11.4674C0.00603409 11.4779 5.72205e-05 11.487 5.72205e-05 11.4974V28.4997C0.000760382 28.8178 0.103656 29.1272 0.293568 29.3822C0.296557 29.3867 0.297084 29.3922 0.300541 29.3962C0.304057 29.4002 0.311558 29.4047 0.316538 29.4102C0.597451 29.7799 1.03435 29.9978 1.49861 29.9998H28.5C28.9661 29.9984 29.4048 29.7794 29.6861 29.4078C29.69 29.4028 29.6961 29.4013 29.6995 29.3963C29.7031 29.3913 29.7035 29.3868 29.7066 29.3823C29.8965 29.1272 29.9994 28.8178 30.0001 28.4998V11.4989C30 11.4884 29.9946 11.4793 29.994 11.4689ZM14.6992 1.1028C14.8738 0.964044 15.1211 0.964044 15.2957 1.1028L16.4493 1.99834H13.5492L14.6992 1.1028ZM1.62459 28.9998L14.6993 18.8437C14.874 18.7052 15.1211 18.7052 15.2958 18.8437L28.374 28.9998H1.62459ZM29 28.2202L15.9113 18.0547C15.3752 17.637 14.6238 17.637 14.0877 18.0547L0.998546 28.2202V12.2604L9.19248 18.6232C9.41082 18.7925 9.72501 18.7528 9.8943 18.5344C10.0636 18.3161 10.0239 18.0019 9.80552 17.8326L1.48109 11.3688L4.99877 8.63518V12.4989C4.99877 12.775 5.22267 12.9989 5.49878 12.9989C5.77494 12.9989 5.99878 12.775 5.99878 12.4989V3.49841C5.99878 3.22224 6.22262 2.9984 6.49879 2.9984H23.4996C23.7758 2.9984 23.9997 3.22224 23.9997 3.49841V12.4989C23.9997 12.775 24.2235 12.9989 24.4997 12.9989C24.7758 12.9989 24.9997 12.775 24.9997 12.4989V8.63518L28.5173 11.3688L20.1784 17.8442C20.035 17.9529 19.961 18.1303 19.9848 18.3087C20.0086 18.4872 20.1264 18.639 20.2933 18.7064C20.4603 18.7737 20.6506 18.7462 20.7915 18.6342L28.9999 12.2604V28.2202H29Z" fill="#476200"/>
<path d="M20.9995 11.9989V9.99878C20.9995 6.6849 18.3131 3.99847 14.9992 3.99847C11.6854 3.99847 8.99894 6.6849 8.99894 9.99878C8.99894 13.3127 11.6854 15.9991 14.9992 15.9991C15.2754 15.9991 15.4992 15.7752 15.4992 15.4991C15.4992 15.2229 15.2754 14.9991 14.9992 14.9991C12.2377 14.9991 9.99901 12.7604 9.99901 9.99884C9.99901 7.23729 12.2377 4.9986 14.9992 4.9986C17.7608 4.9986 19.9995 7.23729 19.9995 9.99884V11.9989C19.9995 12.5513 19.5517 12.999 18.9994 12.999C18.4471 12.999 17.9993 12.5513 17.9993 11.9989V9.99884C17.9993 9.72267 17.7755 9.49883 17.4993 9.49883C17.2232 9.49883 16.9993 9.72267 16.9993 9.99884C16.9993 11.1034 16.1038 11.9989 14.9992 11.9989C13.8946 11.9989 12.9992 11.1034 12.9992 9.99884C12.9992 8.89423 13.8946 7.99876 14.9992 7.99876C15.2754 7.99876 15.4992 7.77492 15.4992 7.49875C15.4992 7.22258 15.2754 6.99874 14.9992 6.99874C13.6565 6.99576 12.4752 7.88531 12.1073 9.17667C11.7393 10.468 12.2741 11.8466 13.4167 12.5519C14.5594 13.2572 16.0314 13.1174 17.0208 12.2095C17.1297 13.267 18.0488 14.0532 19.1103 13.997C20.1719 13.9408 21.0029 13.0619 20.9995 11.9989Z" fill="#476200"/>
</svg>
