<svg width="14" height="20" viewBox="0 0 14 20" fill="none" xmlns="http://www.w3.org/2000/svg">
<path d="M0.93417 10.7342C0.423337 11.7384 1.00334 12.2184 2.32667 13.0384C3.45167 13.7334 5.00583 13.9875 6.00416 14.0892C5.595 14.4825 7.47 12.6792 2.07 17.8734C0.925003 18.9709 2.76833 20.7317 3.9125 19.6575L7.01 16.67C8.19583 17.8109 9.33249 18.9042 10.1075 19.6617C11.2525 20.74 13.095 18.9942 11.9625 17.8775C11.8775 17.7967 7.765 13.8517 8.01583 14.0934C9.02666 13.9917 10.5575 13.7225 11.6692 13.0425L11.6683 13.0417C12.9917 12.2175 13.5717 11.7384 13.0683 10.7342C12.7642 10.1642 11.9442 9.68753 10.8525 10.5117C10.8525 10.5117 9.37833 11.6409 7.00083 11.6409C4.6225 11.6409 3.14917 10.5117 3.14917 10.5117C2.05834 9.68337 1.235 10.1642 0.93417 10.7342Z" fill="white"/>
<path d="M6.99916 10.1183C9.89749 10.1183 12.2642 7.85333 12.2642 5.065C12.2642 2.265 9.89749 0 6.99916 0C4.09999 0 1.73332 2.265 1.73332 5.065C1.73332 7.85333 4.09999 10.1183 6.99916 10.1183ZM6.99916 2.56583C8.42332 2.56583 9.58499 3.68333 9.58499 5.065C9.58499 6.435 8.42332 7.5525 6.99916 7.5525C5.57499 7.5525 4.41332 6.435 4.41332 5.065C4.41249 3.6825 5.57416 2.56583 6.99916 2.56583Z" fill="white"/>
</svg>
