<svg width="30" height="30" viewBox="0 0 30 30" fill="none" xmlns="http://www.w3.org/2000/svg">
<path d="M0 2C0 0.89543 0.895431 0 2 0H28C29.1046 0 30 0.895431 30 2V28C30 29.1046 29.1046 30 28 30H2C0.89543 30 0 29.1046 0 28V2Z" fill="#F7931E"/>
<g clip-path="url(#clip0)">
<path d="M8.93418 15.7341C8.42334 16.7382 9.00334 17.2182 10.3267 18.0382C11.4517 18.7332 13.0058 18.9874 14.0042 19.0891C13.595 19.4824 15.47 17.6791 10.07 22.8732C8.92501 23.9707 10.7683 25.7316 11.9125 24.6574L15.01 21.6699C16.1958 22.8107 17.3325 23.9041 18.1075 24.6616C19.2525 25.7399 21.095 23.9941 19.9625 22.8774C19.8775 22.7966 15.765 18.8516 16.0158 19.0932C17.0267 18.9916 18.5575 18.7224 19.6692 18.0424L19.6683 18.0416C20.9917 17.2174 21.5717 16.7382 21.0683 15.7341C20.7642 15.1641 19.9442 14.6874 18.8525 15.5116C18.8525 15.5116 17.3783 16.6407 15.0008 16.6407C12.6225 16.6407 11.1492 15.5116 11.1492 15.5116C10.0583 14.6832 9.23501 15.1641 8.93418 15.7341Z" fill="white"/>
<path d="M14.9992 15.1183C17.8975 15.1183 20.2642 12.8533 20.2642 10.065C20.2642 7.265 17.8975 5 14.9992 5C12.1 5 9.73334 7.265 9.73334 10.065C9.73334 12.8533 12.1 15.1183 14.9992 15.1183ZM14.9992 7.56583C16.4233 7.56583 17.585 8.68333 17.585 10.065C17.585 11.435 16.4233 12.5525 14.9992 12.5525C13.575 12.5525 12.4133 11.435 12.4133 10.065C12.4125 8.6825 13.5742 7.56583 14.9992 7.56583Z" fill="white"/>
</g>
<defs>
<clipPath id="clip0">
<rect width="20" height="20" fill="white" transform="translate(5 5)"/>
</clipPath>
</defs>
</svg>
