<svg width="35" height="21" viewBox="0 0 35 21" fill="none" xmlns="http://www.w3.org/2000/svg">
<path d="M18.8656 20.2228L34.4408 4.64739C34.8013 4.28715 34.9999 3.80626 34.9999 3.2935C34.9999 2.78074 34.8013 2.29985 34.4408 1.93961L33.2941 0.792587C32.5468 0.0462111 31.3324 0.046211 30.5863 0.792587L17.5072 13.8717L4.41361 0.778074C4.05308 0.417833 3.57248 0.218932 3.06 0.218932C2.54696 0.218932 2.06635 0.417832 1.70554 0.778073L0.559086 1.9251C0.198559 2.28562 -5.73318e-05 2.76623 -5.73542e-05 3.27899C-5.73766e-05 3.79175 0.198559 4.27264 0.559086 4.63288L16.1485 20.2228C16.5101 20.5839 16.993 20.7823 17.5063 20.7811C18.0217 20.7823 18.5043 20.5839 18.8656 20.2228Z" fill="#476200"/>
</svg>
