<svg width="45" height="45" viewBox="0 0 45 45" fill="none" xmlns="http://www.w3.org/2000/svg">
<path d="M29.754 12.6183H6.02481C5.66077 12.6183 5.36563 12.9133 5.36563 13.2775C5.36563 13.6416 5.66077 13.9366 6.02481 13.9366H29.754C30.1181 13.9366 30.4131 13.6416 30.4131 13.2775C30.4131 12.9134 30.1181 12.6183 29.754 12.6183Z" fill="#476200"/>
<path d="M0.7276 37.857C1.09164 37.857 1.38678 37.562 1.38678 37.1979V2.89986C1.38678 2.02781 2.09623 1.31836 2.96828 1.31836H32.8123C33.6844 1.31836 34.3938 2.02781 34.3938 2.89986V6.12624C34.3938 6.49037 34.6889 6.78542 35.053 6.78542C35.4172 6.78542 35.7122 6.49037 35.7122 6.12624V2.89986C35.7122 1.30087 34.4113 0 32.8123 0H2.96828C1.36929 0 0.0684204 1.30087 0.0684204 2.89986V37.1979C0.0684204 37.562 0.363557 37.857 0.7276 37.857Z" fill="#476200"/>
<path d="M29.754 17.6622H6.02481C5.66077 17.6622 5.36563 17.9572 5.36563 18.3214C5.36563 18.6855 5.66077 18.9806 6.02481 18.9806H29.754C30.1181 18.9806 30.4131 18.6855 30.4131 18.3214C30.4131 17.9572 30.1181 17.6622 29.754 17.6622Z" fill="#476200"/>
<path d="M11.4075 32.8521C10.1497 32.1692 7.54885 33.3325 6.60833 34.1685C6.33622 34.4104 6.31179 34.827 6.55358 35.0991C6.79536 35.3711 7.21197 35.3958 7.48416 35.1538C7.86921 34.8115 8.64362 34.4081 9.36731 34.1726C10.2864 33.8737 10.6989 33.9629 10.779 34.0106C10.7847 34.0334 10.7908 34.0913 10.7758 34.1905C10.67 34.8873 10.8248 35.3771 11.2359 35.6465C11.4225 35.7687 11.6296 35.8254 11.8619 35.8254C12.6902 35.8253 13.8372 35.1043 15.4984 34.0599C15.765 33.8923 16.0384 33.7204 16.3162 33.5485C16.6258 33.3568 16.7213 32.9506 16.5297 32.6411C16.3381 32.3316 15.932 32.2361 15.6222 32.4275C15.3419 32.6011 15.0658 32.7746 14.7967 32.9438C13.9175 33.4966 12.6462 34.2958 12.0685 34.4709C12.0711 34.446 12.0746 34.4184 12.0792 34.3883C12.1837 33.7005 11.9389 33.1406 11.4075 32.8521Z" fill="#476200"/>
<path d="M44.5532 15.4973L41.7858 12.73C41.5407 12.4849 41.2149 12.3499 40.8684 12.3499C40.5218 12.3499 40.196 12.4849 39.9509 12.73L38.9388 13.742L38.8016 13.6048C38.2773 13.0808 37.4245 13.0807 36.9001 13.6048L35.7114 14.7936V9.26559C35.7114 8.90146 35.4163 8.60641 35.0522 8.60641C34.6881 8.60641 34.393 8.90146 34.393 9.26559V16.1119L27.7989 22.7061H6.02482C5.66077 22.7061 5.36564 23.0011 5.36564 23.3653C5.36564 23.7294 5.66077 24.0245 6.02482 24.0245H26.4805L21.9424 28.5626C21.6884 28.8166 21.5486 29.1542 21.5486 29.5133C21.5486 29.825 21.6542 30.1202 21.848 30.3589C21.0961 31.2214 20.418 32.2848 20.0144 33.2544C19.3665 34.8107 19.5008 35.8348 19.8563 36.4946L19.3228 37.0281C19.0653 37.2857 19.0653 37.703 19.3228 37.9604C19.4514 38.0891 19.6202 38.1534 19.7888 38.1534C19.9575 38.1534 20.1263 38.0891 20.2549 37.9604L20.7888 37.4265C21.1147 37.6021 21.5289 37.7241 22.053 37.7241C22.5898 37.7241 23.2411 37.5966 24.0287 37.2687C24.9982 36.8652 26.0616 36.187 26.9242 35.4351C27.1628 35.6289 27.458 35.7346 27.7697 35.7346C28.1289 35.7346 28.4665 35.5946 28.7204 35.3408L34.3929 29.6683V35.1624C33.603 35.8349 32.6087 36.2031 31.5631 36.2031H29.8143C28.2154 36.2031 26.9145 37.504 26.9145 39.103V40.8517C26.9145 41.8973 26.5462 42.8916 25.8738 43.6815H2.96736C2.09531 43.6815 1.38577 42.9721 1.38577 42.1V40.3444C1.38577 39.9803 1.09064 39.6852 0.726593 39.6852C0.36255 39.6852 0.0674133 39.9803 0.0674133 40.3444V42.1C0.0675012 43.6991 1.36837 45 2.96736 45H27.6031C32.0739 45 35.7113 41.3627 35.7113 36.8919V28.3499L41.2589 22.8022C41.259 22.8022 41.259 22.8022 41.2591 22.8022L41.2592 22.802L43.6782 20.383C44.2024 19.8587 44.2024 19.0058 43.6782 18.4815L43.5411 18.3443L44.5533 17.3322C45.059 16.8263 45.059 16.0032 44.5532 15.4973ZM27.6031 43.6816H27.481C27.9712 42.8286 28.2328 41.8582 28.2328 40.8518V39.1031C28.2328 38.231 28.9422 37.5216 29.8143 37.5216H31.563C32.5694 37.5216 33.5398 37.26 34.3928 36.7698V36.8919H34.3929C34.3929 40.6358 31.3471 43.6816 27.6031 43.6816ZM34.9471 17.4224L36.3922 18.8675L30.3452 24.9145L28.9 23.4693L34.9471 17.4224ZM21.1863 36.0967C20.6167 35.5271 20.9701 34.3888 21.2314 33.7611C21.567 32.9547 22.1455 32.041 22.7774 31.2992L25.9831 34.5049C24.4498 35.8071 22.0623 36.9727 21.1863 36.0967ZM27.7881 34.4086C27.7857 34.411 27.7805 34.4162 27.7697 34.4162C27.7589 34.4162 27.7537 34.411 27.7513 34.4085L22.8746 29.5319C22.8721 29.5294 22.8669 29.5242 22.8669 29.5134C22.8669 29.5026 22.8721 29.4974 22.8746 29.4949L27.9679 24.4016L29.5085 25.942C29.7392 26.1727 30.0422 26.2881 30.3453 26.288C30.6484 26.288 30.9516 26.1726 31.1824 25.942L37.3245 19.7998L39.8608 22.336L27.7881 34.4086ZM42.746 19.4507L40.7929 21.4037L35.8793 16.4901L37.8323 14.5372C37.8374 14.5321 37.8441 14.5295 37.8508 14.5295C37.8575 14.5295 37.8642 14.532 37.8693 14.5372L42.746 19.4139C42.7562 19.424 42.7562 19.4405 42.746 19.4507ZM42.6088 17.4121L39.871 14.6742L40.8683 13.6768L43.6061 16.4147L42.6088 17.4121Z" fill="#476200"/>
<path d="M14.9891 37.8101H7.86613C7.50209 37.8101 7.20695 38.1052 7.20695 38.4693C7.20695 38.8334 7.50209 39.1285 7.86613 39.1285H14.9891C15.3532 39.1285 15.6483 38.8334 15.6483 38.4693C15.6483 38.1053 15.3532 37.8101 14.9891 37.8101Z" fill="#476200"/>
<path d="M6.02481 8.89267H18.6267C18.9908 8.89267 19.2859 8.59762 19.2859 8.23349C19.2859 7.86936 18.9908 7.57431 18.6267 7.57431H6.02481C5.66077 7.57431 5.36563 7.86936 5.36563 8.23349C5.36563 8.59753 5.66077 8.89267 6.02481 8.89267Z" fill="#476200"/>
</svg>
