<svg width="10" height="18" viewBox="0 0 10 18" fill="none" xmlns="http://www.w3.org/2000/svg">
<path d="M9.49926 0.0038062L7.16508 6.10352e-05C4.54272 6.10352e-05 2.84804 1.73875 2.84804 4.42984V6.47226H0.50113C0.298329 6.47226 0.134104 6.63668 0.134104 6.83948V9.79872C0.134104 10.0015 0.298517 10.1657 0.50113 10.1657H2.84804V17.6328C2.84804 17.8356 3.01226 17.9999 3.21506 17.9999H6.27711C6.47991 17.9999 6.64413 17.8355 6.64413 17.6328V10.1657H9.38821C9.59101 10.1657 9.75524 10.0015 9.75524 9.79872L9.75636 6.83948C9.75636 6.7421 9.7176 6.64885 9.64888 6.57994C9.58015 6.51103 9.48652 6.47226 9.38915 6.47226H6.64413V4.74087C6.64413 3.9087 6.84244 3.48625 7.92648 3.48625L9.49888 3.48568C9.7015 3.48568 9.86572 3.32127 9.86572 3.11866V0.370832C9.86572 0.168406 9.70168 0.00418071 9.49926 0.0038062Z" fill="white"/>
</svg>
