<svg width="30" height="30" viewBox="0 0 30 30" fill="none" xmlns="http://www.w3.org/2000/svg">
<path d="M0 2C0 0.89543 0.895431 0 2 0H28C29.1046 0 30 0.895431 30 2V28C30 29.1046 29.1046 30 28 30H2C0.89543 30 0 29.1046 0 28V2Z" fill="#4167B2"/>
<g>
    <path d="M19.9992 5.00416L17.4056 5C14.4919 5 12.6089 6.93188 12.6089 9.92198V12.1913H10.0013C9.77592 12.1913 9.59344 12.374 9.59344 12.5994V15.8874C9.59344 16.1127 9.77613 16.2952 10.0013 16.2952H12.6089V24.592C12.6089 24.8173 12.7914 24.9998 13.0167 24.9998H16.419C16.6443 24.9998 16.8268 24.8171 16.8268 24.592V16.2952H19.8758C20.1011 16.2952 20.2836 16.1127 20.2836 15.8874L20.2848 12.5994C20.2848 12.4912 20.2418 12.3875 20.1654 12.311C20.0891 12.2344 19.985 12.1913 19.8768 12.1913H16.8268V10.2676C16.8268 9.34293 17.0471 8.87354 18.2516 8.87354L19.9988 8.87291C20.2239 8.87291 20.4064 8.69023 20.4064 8.46511V5.41197C20.4064 5.18705 20.2241 5.00458 19.9992 5.00416Z" fill="white"/>
</g>
</svg>
