<svg width="30" height="30" viewBox="0 0 30 30" fill="none" xmlns="http://www.w3.org/2000/svg">
<path d="M9.84224 20.5356C11.0778 22.2776 12.3113 23.8356 13.1288 24.8391C13.2478 24.9851 13.3593 25.1206 13.4673 25.2511H11.0003C10.7241 25.2511 10.5003 25.4749 10.5003 25.7511C10.5003 26.0272 10.7241 26.251 11.0003 26.251H19.0002C19.2764 26.251 19.5002 26.0272 19.5002 25.7511C19.5002 25.4749 19.2764 25.2511 19.0002 25.2511H16.5333C16.6412 25.1206 16.7528 24.9851 16.8723 24.8391C17.6893 23.8391 18.9223 22.2776 20.1583 20.5356C21.3846 18.842 22.4884 17.0629 23.4613 15.2121C24.4823 13.2071 25.0003 11.5426 25.0003 10.2646C25.0037 7.60907 23.95 5.0614 22.0718 3.18405C21.9463 3.05397 21.7605 3.00171 21.5856 3.04735C21.4108 3.093 21.2742 3.2294 21.2283 3.40419C21.1824 3.57897 21.2344 3.76489 21.3643 3.89052C23.0548 5.58061 24.0033 7.87403 24.0003 10.2646C24.0003 11.3836 23.5193 12.8955 22.5703 14.7581C21.6194 16.566 20.5406 18.3038 19.3423 19.9581C18.1233 21.6776 16.9048 23.2181 16.0973 24.2081C15.8288 24.5371 15.5873 24.8281 15.3813 25.0741C15.2852 25.1839 15.1463 25.2469 15.0003 25.2469C14.8544 25.2469 14.7155 25.1839 14.6193 25.0741C14.4133 24.8281 14.1719 24.5371 13.9033 24.2081C13.0958 23.2186 11.8773 21.6781 10.6583 19.9581C9.46003 18.3038 8.38126 16.566 7.43033 14.7581C6.48035 12.8955 6.00035 11.3836 6.00035 10.2646C6.00006 6.64291 8.16592 3.37231 11.5004 1.95903C13.7409 1.01953 16.2649 1.01953 18.5054 1.95903C18.6699 2.02875 18.8591 2.00549 19.0018 1.89785C19.1445 1.79028 19.2189 1.61473 19.1971 1.43736C19.1752 1.26 19.0604 1.10777 18.8959 1.03805C13.8042 -1.10954 7.93553 1.27606 5.78636 6.36705C5.26517 7.60022 4.99786 8.9258 5.00038 10.2646C5.00038 11.5425 5.51841 13.2071 6.53941 15.2146C7.51219 17.0646 8.61604 18.8428 9.84224 20.5356Z" fill="#476200"/>
<path d="M15.0002 5.75103C15.2763 5.75103 15.5002 5.5272 15.5002 5.25105C15.5002 4.9749 15.2763 4.75107 15.0002 4.75107C12.6148 4.75101 10.5616 6.43605 10.0962 8.77558C9.63078 11.1151 10.8829 13.4576 13.0866 14.3705C15.2904 15.2834 17.8321 14.5123 19.1574 12.529C20.4827 10.5456 20.2224 7.9023 18.5357 6.21556C18.4101 6.0856 18.2243 6.03345 18.0494 6.07921C17.8746 6.12497 17.7381 6.2615 17.6923 6.43628C17.6466 6.61113 17.6987 6.79699 17.8287 6.92255C19.1781 8.27191 19.3864 10.3865 18.3263 11.9732C17.2661 13.5599 15.2327 14.1768 13.4697 13.4466C11.7067 12.7164 10.705 10.8425 11.0772 8.97081C11.4494 7.09915 13.0919 5.75109 15.0002 5.75103Z" fill="#476200"/>
<path d="M29.8121 27.5367L26.7371 22.0366C26.4591 21.5479 25.9388 21.2476 25.3766 21.2511H21.8131C21.537 21.2511 21.3131 21.4749 21.3131 21.7511C21.3131 22.0272 21.537 22.2511 21.8131 22.2511H25.3766C25.5768 22.2472 25.7635 22.3516 25.8651 22.5241L28.9391 28.0241C29.0229 28.1672 29.0211 28.3447 28.9346 28.4861C28.8325 28.6549 28.6478 28.7559 28.4506 28.7511H1.55054C1.35354 28.7558 1.16909 28.6547 1.06702 28.4861C0.980535 28.3447 0.978836 28.1672 1.06251 28.0241L4.13653 22.5241C4.23795 22.3516 4.42452 22.2473 4.6245 22.2511H8.18801C8.46416 22.2511 8.68799 22.0272 8.68799 21.7511C8.68799 21.4749 8.46416 21.2511 8.18801 21.2511H4.62456C4.06205 21.2474 3.54139 21.5478 3.26307 22.0366L0.18852 27.5367C-0.0678292 27.9895 -0.0619112 28.5449 0.204047 28.9922C0.484244 29.4684 0.998055 29.7581 1.55054 29.7512H28.4506C29.003 29.7579 29.5166 29.4683 29.7967 28.9922C30.0626 28.5449 30.0685 27.9895 29.8121 27.5367Z" fill="#476200"/>
<path d="M24.5003 23.7511H22.5003C22.4016 23.7513 22.3051 23.7805 22.2228 23.8352L20.7228 24.8352C20.4931 24.9885 20.4311 25.2989 20.5843 25.5287C20.7376 25.7584 21.0481 25.8204 21.2778 25.6672L22.6503 24.7512H24.5003C24.7765 24.7512 25.0003 24.5273 25.0003 24.2512C25.0003 23.975 24.7765 23.7511 24.5003 23.7511Z" fill="#476200"/>
<path d="M21.5003 27.2511C21.5003 27.5273 21.7241 27.7511 22.0003 27.7511H26.0003C26.2765 27.7511 26.5003 27.5273 26.5003 27.2511C26.5003 26.975 26.2765 26.7511 26.0003 26.7511H22.0003C21.7241 26.7511 21.5003 26.975 21.5003 27.2511Z" fill="#476200"/>
<path d="M9.00017 25.7511C9.2206 25.7514 9.41519 25.6073 9.47924 25.3963C9.54328 25.1854 9.4616 24.9574 9.2782 24.8351L7.7782 23.8351C7.69582 23.7804 7.59908 23.7511 7.50017 23.7511H5.50019C5.22404 23.7511 5.00021 23.975 5.00021 24.2511C5.00021 24.5272 5.2241 24.751 5.50019 24.751H7.35017L8.7242 25.667C8.80594 25.7217 8.90197 25.7509 9.00017 25.7511Z" fill="#476200"/>
<path d="M4.00019 26.7511C3.72404 26.7511 3.50021 26.975 3.50021 27.2511C3.50021 27.5273 3.72404 27.7511 4.00019 27.7511H8.00021C8.27637 27.7511 8.50019 27.5273 8.50019 27.2511C8.50019 26.975 8.27637 26.7511 8.00021 26.7511H4.00019Z" fill="#476200"/>
</svg>
