<svg width="30" height="30" viewBox="0 0 30 30" fill="none" xmlns="http://www.w3.org/2000/svg">
<path d="M0 2C0 0.89543 0.895431 0 2 0H28C29.1046 0 30 0.895431 30 2V28C30 29.1046 29.1046 30 28 30H2C0.89543 30 0 29.1046 0 28V2Z" fill="#FF6D00"/>
<g clip-path="url(#clip0)">
<path d="M24.9804 10.8801C24.9336 9.81738 24.7617 9.0868 24.5155 8.45374C24.2616 7.78176 23.8709 7.18014 23.359 6.68002C22.8589 6.1721 22.2533 5.77743 21.5891 5.52745C20.9524 5.28127 20.2256 5.10943 19.1629 5.06257C18.0923 5.01175 17.7524 5 15.0371 5C12.3217 5 11.9818 5.01175 10.9152 5.05861C9.8525 5.10546 9.12192 5.27746 8.48901 5.52348C7.81689 5.77743 7.21527 6.16814 6.71514 6.68002C6.20723 7.18014 5.81271 7.78573 5.56257 8.44992C5.3164 9.0868 5.14455 9.81341 5.0977 10.8761C5.04688 11.9467 5.03513 12.2866 5.03513 15.002C5.03513 17.7173 5.04688 18.0572 5.09373 19.1239C5.14058 20.1865 5.31258 20.9171 5.55876 21.5502C5.81271 22.2221 6.20723 22.8238 6.71514 23.3239C7.21527 23.8318 7.82085 24.2265 8.48504 24.4765C9.12192 24.7226 9.84853 24.8945 10.9114 24.9413C11.9778 24.9883 12.3179 24.9999 15.0333 24.9999C17.7486 24.9999 18.0885 24.9883 19.1551 24.9413C20.2178 24.8945 20.9484 24.7226 21.5813 24.4765C22.9254 23.9568 23.9881 22.8941 24.5077 21.5502C24.7538 20.9133 24.9258 20.1865 24.9726 19.1239C25.0195 18.0572 25.0312 17.7173 25.0312 15.002C25.0312 12.2866 25.0273 11.9467 24.9804 10.8801ZM23.1794 19.0457C23.1363 20.0225 22.9723 20.5499 22.8355 20.9015C22.4995 21.7728 21.8079 22.4643 20.9367 22.8004C20.585 22.9372 20.0538 23.1012 19.0808 23.1441C18.0259 23.1911 17.7096 23.2027 15.041 23.2027C12.3725 23.2027 12.0522 23.1911 11.0011 23.1441C10.0243 23.1012 9.4969 22.9372 9.14527 22.8004C8.71168 22.6402 8.31701 22.3862 7.99667 22.0541C7.66457 21.7298 7.41062 21.3391 7.25037 20.9055C7.11362 20.5539 6.94956 20.0225 6.90667 19.0497C6.85967 17.9948 6.84807 17.6783 6.84807 15.0097C6.84807 12.3412 6.85967 12.0209 6.90667 10.9699C6.94956 9.99319 7.11362 9.46575 7.25037 9.11412C7.41062 8.68038 7.66457 8.28586 8.00064 7.96536C8.3248 7.63327 8.7155 7.37931 9.14924 7.21921C9.50087 7.08247 10.0323 6.9184 11.0051 6.87537C12.06 6.82851 12.3765 6.81676 15.0449 6.81676C17.7173 6.81676 18.0337 6.82851 19.0848 6.87537C20.0615 6.9184 20.589 7.08247 20.9406 7.21921C21.3742 7.37931 21.7689 7.63327 22.0892 7.96536C22.4213 8.28967 22.6753 8.68038 22.8355 9.11412C22.9723 9.46575 23.1363 9.99701 23.1794 10.9699C23.2262 12.0248 23.238 12.3412 23.238 15.0097C23.238 17.6783 23.2262 17.9908 23.1794 19.0457Z" fill="white"/>
<path d="M15.0371 9.86426C12.2007 9.86426 9.89935 12.1654 9.89935 15.002C9.89935 17.8385 12.2007 20.1397 15.0371 20.1397C17.8736 20.1397 20.1748 17.8385 20.1748 15.002C20.1748 12.1654 17.8736 9.86426 15.0371 9.86426ZM15.0371 18.3347C13.197 18.3347 11.7044 16.8422 11.7044 15.002C11.7044 13.1617 13.197 11.6693 15.0371 11.6693C16.8773 11.6693 18.3698 13.1617 18.3698 15.002C18.3698 16.8422 16.8773 18.3347 15.0371 18.3347Z" fill="white"/>
<path d="M21.5775 9.66109C21.5775 10.3235 21.0405 10.8605 20.378 10.8605C19.7156 10.8605 19.1785 10.3235 19.1785 9.66109C19.1785 8.99858 19.7156 8.46167 20.378 8.46167C21.0405 8.46167 21.5775 8.99858 21.5775 9.66109Z" fill="white"/>
</g>
<defs>
<clipPath id="clip0">
<rect width="20" height="20" fill="white" transform="translate(5 5)"/>
</clipPath>
</defs>
</svg>
