<svg width="30" height="30" viewBox="0 0 30 30" fill="none" xmlns="http://www.w3.org/2000/svg">
<path d="M29.2128 23.1434L23.1407 19.094C22.3701 18.5842 21.3372 18.752 20.7675 19.4794L18.9988 21.7536C18.7715 22.0533 18.3583 22.1402 18.0294 21.9576L17.693 21.7721C16.5776 21.1641 15.1899 20.4073 12.3938 17.6102C9.5977 14.8131 8.83931 13.4243 8.23138 12.311L8.04689 11.9746C7.8617 11.6458 7.947 11.2308 8.24684 11.0017L10.5195 9.23347C11.2466 8.66373 11.4146 7.63111 10.9054 6.86031L6.85603 0.788205C6.33422 0.00328256 5.2873 -0.232347 4.47947 0.253265L1.94033 1.77853C1.14252 2.24756 0.557199 3.00717 0.3071 3.89819C-0.607238 7.22969 0.0806091 12.9793 8.55037 21.4501C15.2879 28.1871 20.3037 29.9988 23.7512 29.9988C24.5446 30.0022 25.3349 29.899 26.1008 29.6919C26.992 29.4421 27.7517 28.8567 28.2205 28.0587L29.7473 25.5211C30.2336 24.7131 29.9981 23.6655 29.2128 23.1434ZM28.8858 25.0081L27.3626 27.5472C27.026 28.1232 26.4796 28.5467 25.8378 28.7291C22.7622 29.5734 17.389 28.8741 9.25773 20.7427C1.12641 12.6114 0.427082 7.23871 1.27147 4.1627C1.45402 3.52014 1.87806 2.97302 2.45477 2.63592L4.99391 1.11265C5.34442 0.901743 5.79881 1.00397 6.02524 1.34459L8.22493 4.64709L10.0712 7.41617C10.2923 7.75051 10.2196 8.19863 9.90421 8.44603L7.63105 10.2142C6.93928 10.7432 6.74173 11.7003 7.16765 12.4599L7.34815 12.7879C7.98708 13.9597 8.78143 15.4175 11.6815 18.3171C14.5816 21.2166 16.0389 22.011 17.2102 22.6499L17.5386 22.8309C18.2982 23.2567 19.2553 23.0593 19.7843 22.3675L21.5525 20.0943C21.8 19.7791 22.2479 19.7065 22.5824 19.9274L28.654 23.9768C28.9948 24.203 29.097 24.6576 28.8858 25.0081Z" fill="#476200"/>
<path d="M16.9991 5.00259C21.6907 5.0078 25.4926 8.8098 25.4979 13.5013C25.4979 13.7775 25.7217 14.0013 25.9978 14.0013C26.2739 14.0013 26.4977 13.7775 26.4977 13.5013C26.4919 8.25781 22.2427 4.00852 16.9991 4.00278C16.723 4.00278 16.4992 4.22657 16.4992 4.50268C16.4992 4.7788 16.723 5.00259 16.9991 5.00259Z" fill="#476200"/>
<path d="M16.9991 8.00215C20.0348 8.00572 22.4947 10.4657 22.4983 13.5013C22.4983 13.7775 22.7222 14.0013 22.9982 14.0013C23.2743 14.0013 23.4981 13.7775 23.4981 13.5013C23.494 9.91372 20.5867 7.00644 16.9991 7.00233C16.723 7.00233 16.4992 7.22613 16.4992 7.50224C16.4992 7.77835 16.723 8.00215 16.9991 8.00215Z" fill="#476200"/>
<path d="M16.9991 11.0017C18.3789 11.0033 19.4971 12.1215 19.4988 13.5013C19.4988 13.7774 19.7226 14.0012 19.9987 14.0012C20.2747 14.0012 20.4986 13.7774 20.4986 13.5013C20.4963 11.5695 18.9309 10.004 16.9991 10.0019C16.723 10.0019 16.4992 10.2257 16.4992 10.5018C16.4992 10.7779 16.723 11.0017 16.9991 11.0017Z" fill="#476200"/>
</svg>
