<svg width="45" height="45" viewBox="0 0 45 45" fill="none" xmlns="http://www.w3.org/2000/svg">
<path d="M45 3.06561C45.0034 2.24392 44.6863 1.4725 44.1071 0.893302C43.5279 0.314103 42.755 -0.00247904 41.9349 0.000509244C41.1156 0.00393698 40.3443 0.32588 39.763 0.907013C39.5169 1.15311 39.0693 1.68467 38.8245 1.97972C38.5673 2.28953 38.6098 2.7492 38.9196 3.00628C39.2294 3.26345 39.689 3.22091 39.9462 2.9111C40.3298 2.44914 40.6468 2.08536 40.794 1.93806C41.1014 1.6307 41.5087 1.46037 41.941 1.45853C41.9433 1.45853 41.9455 1.45853 41.9479 1.45853C42.3752 1.45853 42.7758 1.62376 43.0762 1.92426C43.3782 2.22634 43.5437 2.62949 43.5419 3.05945C43.5401 3.49161 43.3697 3.8989 43.0624 4.20643C42.7872 4.48161 41.8413 5.23194 40.4861 6.17861C39.6845 4.80804 38.1977 3.88475 36.4985 3.88475H25.823C24.3819 3.88475 23.0272 4.44593 22.0081 5.46485L0.669111 26.8041C0.237656 27.2355 0 27.8092 0 28.4193C0 29.0295 0.237656 29.6032 0.669111 30.0346L14.966 44.3315C15.4114 44.7768 15.9963 44.9995 16.5813 44.9995C17.1663 44.9995 17.7513 44.7767 18.1965 44.3315L39.5357 22.9924C40.5546 21.9734 41.1158 20.6187 41.1158 19.1775V8.50208C41.1158 8.18699 41.0839 7.87938 41.0234 7.58187C42.566 6.52041 43.6983 5.63245 44.0933 5.23747C44.6746 4.65634 44.9966 3.88501 45 3.06561ZM39.6577 19.1775C39.6577 20.2291 39.2482 21.2178 38.5047 21.9613L17.1656 43.3005C16.8435 43.6226 16.3192 43.6226 15.9971 43.3005L1.70016 29.0036C1.54415 28.8476 1.45811 28.6401 1.45811 28.4193C1.45811 28.1985 1.54406 27.9911 1.70016 27.8351L23.0392 6.49607C23.7829 5.75251 24.7714 5.34303 25.823 5.34303H36.4984C37.6973 5.34303 38.7423 6.01425 39.2774 7.00056C38.4162 7.57079 37.452 8.17715 36.429 8.7734C36.3971 8.73842 36.3645 8.70379 36.3306 8.66995C35.1367 7.47605 33.1942 7.47605 32.0003 8.66995C30.8064 9.86386 30.8064 11.8064 32.0003 13.0003C32.5972 13.5973 33.3814 13.8957 34.1655 13.8957C34.9495 13.8957 35.7337 13.5973 36.3306 13.0003C37.1275 12.2034 37.3917 11.0732 37.1248 10.0545C38.0145 9.53655 38.8689 9.00719 39.6574 8.49505C39.6575 8.49751 39.6577 8.4998 39.6577 8.50217V19.1775H39.6577ZM33.5144 11.1627C33.6424 11.4173 33.8994 11.5643 34.1662 11.5643C34.2764 11.5643 34.3883 11.5392 34.4934 11.4863C34.9207 11.2713 35.3465 11.0477 35.7681 10.8187C35.7724 11.2349 35.6168 11.6523 35.2999 11.9693C34.6744 12.5946 33.657 12.5946 33.0316 11.9693C32.4062 11.3438 32.4062 10.3264 33.0316 9.701C33.3443 9.38828 33.755 9.23201 34.1657 9.23201C34.4909 9.23201 34.8151 9.33168 35.0917 9.52759C34.6791 9.75189 34.2603 9.97152 33.8382 10.184C33.4782 10.3647 33.3333 10.8031 33.5144 11.1627Z" fill="#476200"/>
<path d="M21.7232 14.8502C21.3206 14.8502 20.9942 15.1765 20.9942 15.5792V30.9758C20.9942 31.3784 21.3206 31.7049 21.7232 31.7049C22.1259 31.7049 22.4523 31.3784 22.4523 30.9758V15.5792C22.4523 15.1765 22.1259 14.8502 21.7232 14.8502Z" fill="#476200"/>
<path d="M18.3894 21.1125C17.1956 19.9184 15.253 19.9185 14.0592 21.1124C12.8653 22.3063 12.8653 24.2488 14.0592 25.4427C14.6563 26.0398 15.4403 26.3382 16.2244 26.3381C17.0084 26.3381 17.7927 26.0395 18.3895 25.4427C18.9679 24.8643 19.2865 24.0955 19.2865 23.2776C19.2865 22.4596 18.9679 21.6907 18.3894 21.1125ZM17.3585 24.4116C16.7331 25.037 15.7156 25.0369 15.0903 24.4116C14.465 23.7862 14.465 22.7688 15.0903 22.1433C15.403 21.8306 15.8137 21.6743 16.2244 21.6743C16.6351 21.6743 17.0459 21.8306 17.3586 22.1433C17.6615 22.4463 17.8284 22.849 17.8284 23.2775C17.8283 23.7059 17.6614 24.1086 17.3585 24.4116Z" fill="#476200"/>
<path d="M29.3871 21.1124C28.1932 19.9184 26.2506 19.9185 25.0569 21.1124C23.863 22.3063 23.863 24.2488 25.0569 25.4427C25.6539 26.0397 26.438 26.3381 27.2221 26.3381C28.0062 26.3381 28.7903 26.0397 29.3872 25.4427C30.581 24.2488 30.581 22.3063 29.3871 21.1124ZM28.3561 24.4116C27.7306 25.037 26.7132 25.037 26.0879 24.4116C25.4625 23.7862 25.4625 22.7688 26.0879 22.1433C26.4006 21.8306 26.8113 21.6744 27.222 21.6744C27.6327 21.6744 28.0435 21.8306 28.3562 22.1433C28.9815 22.7688 28.9815 23.7862 28.3561 24.4116Z" fill="#476200"/>
</svg>
